<svg width="28" height="28" viewBox="0 0 28 28" fill="none" xmlns="http://www.w3.org/2000/svg">
<g clip-path="url(#clip0_200_29059)">
<rect x="2" y="2" width="24" height="24" rx="12" fill="white" fill-opacity="0.01"/>
<rect x="2" y="2" width="24" height="24" rx="12" fill="#F48FB1"/>
<path d="M14 13.9999C15.8417 13.9999 17.3333 12.5083 17.3333 10.6666C17.3333 8.82492 15.8417 7.33325 14 7.33325C12.1583 7.33325 10.6667 8.82492 10.6667 10.6666C10.6667 12.5083 12.1583 13.9999 14 13.9999ZM14 15.6666C11.775 15.6666 7.33333 16.7833 7.33333 18.9999V20.6666H20.6667V18.9999C20.6667 16.7833 16.225 15.6666 14 15.6666Z" fill="white"/>
</g>
<rect x="1" y="1" width="26" height="26" rx="13" stroke="white" stroke-width="2"/>
<defs>
<clipPath id="clip0_200_29059">
<rect x="2" y="2" width="24" height="24" rx="12" fill="white"/>
</clipPath>
</defs>
</svg>
