<svg width="30" height="30" viewBox="0 0 30 30" fill="none" xmlns="http://www.w3.org/2000/svg">
<path d="M29.115 14.37L15.615 0.87C15.075 0.33 14.325 0 13.5 0H3C1.35 0 0 1.35 0 3V13.5C0 14.325 0.33 15.075 0.885 15.63L14.385 29.13C14.925 29.67 15.675 30 16.5 30C17.325 30 18.075 29.67 18.615 29.115L29.115 18.615C29.67 18.075 30 17.325 30 16.5C30 15.675 29.655 14.91 29.115 14.37ZM5.25 7.5C4.005 7.5 3 6.495 3 5.25C3 4.005 4.005 3 5.25 3C6.495 3 7.5 4.005 7.5 5.25C7.5 6.495 6.495 7.5 5.25 7.5Z" fill="black" fill-opacity="0.54"/>
</svg>
