<?xml version="1.0" encoding="utf-8"?>
<!-- Generator: Adobe Illustrator 25.2.1, SVG Export Plug-In . SVG Version: 6.00 Build 0)  -->
<svg version="1.1" id="Layer_1" xmlns="http://www.w3.org/2000/svg" xmlns:xlink="http://www.w3.org/1999/xlink" x="0px" y="0px"
	 viewBox="0 0 512 512" style="enable-background:new 0 0 512 512;" xml:space="preserve">
<style type="text/css">
	.st0{fill:#0C838A;}
	.st1{fill:#003C6D;}
</style>
<g id="Outline">
	<path class="st0" d="M280,104V56c0-4.4-3.6-8-8-8H96c-4.4,0-8,3.6-8,8v48c0,4.4,3.6,8,8,8h176C276.4,112,280,108.4,280,104z
		 M264,96H104V64h160V96z"/>
	<path class="st1" d="M56,144v96c0,4.4,3.6,8,8,8h96c4.4,0,8-3.6,8-8v-46.1l-16,16V232H72v-80h70.1l16-16H64
		C59.6,136,56,139.6,56,144z"/>
	<path class="st0" d="M178.3,138.3L120,196.7l-18.3-18.3l-11.3,11.3l24,24c3.1,3.1,8.2,3.1,11.3,0l64-64L178.3,138.3z"/>
	<path class="st1" d="M56,376c0,4.4,3.6,8,8,8h96c4.4,0,8-3.6,8-8v-46.1l-16,16V368H72v-80h70.1l16-16H64c-4.4,0-8,3.6-8,8L56,376z"
		/>
	<path class="st0" d="M101.7,314.3l-11.3,11.3l24,24c3.1,3.1,8.2,3.1,11.3,0l64-64l-11.3-11.3L120,332.7L101.7,314.3z"/>
	<path class="st1" d="M208,192h104v16H208V192z"/>
	<path class="st1" d="M208,152h104v16H208V152z"/>
	<path class="st1" d="M208,288h48v16h-48V288z"/>
	<path class="st1" d="M208,328h48v16h-48V328z"/>
	<path class="st1" d="M32,480V32h304v170.8c5.4-1.9,10.7-3.9,16-6.2V24c0-4.4-3.6-8-8-8H24c-4.4,0-8,3.6-8,8v464c0,4.4,3.6,8,8,8
		h320c0.8,0,1.7-0.2,2.5-0.5c-7.6-4.7-14.8-9.8-21.6-15.5H32z"/>
	<path class="st1" d="M488.9,232c-35.4-3.8-69.7-14.4-101.1-31.1c-2.4-1.3-5.2-1.3-7.5,0c-31.4,16.7-65.7,27.3-101.1,31.1
		c-4.1,0.4-7.1,3.9-7.1,8v94.8c0.5,70.7,43.5,134.1,108.9,160.6c2,0.8,4.2,0.8,6.2,0c65.5-26.6,108.5-90,108.9-160.6V240
		C496,235.9,492.9,232.5,488.9,232L488.9,232z M480,334.8c-0.4,63-38.1,119.7-96,144.5c-57.9-24.8-95.6-81.6-96-144.5v-87.7
		c33.5-4.4,66-14.6,96-30c30,15.4,62.5,25.6,96,30V334.8z"/>
	<path class="st0" d="M317.7,330.3l-11.3,11.3l48,48c3.1,3.1,8.2,3.1,11.3,0l96-96l-11.3-11.3L360,372.7L317.7,330.3z"/>
	<path class="st0" d="M200,440h56v16h-56V440z"/>
	<path class="st1" d="M128,408h128v16H128V408z"/>
</g>
</svg>
