<svg width="120" height="104" viewBox="0 0 120 104" fill="none" xmlns="http://www.w3.org/2000/svg">
<path d="M18.135 99.126C17.855 99.126 17.5283 99.1073 17.155 99.07C16.7816 99.042 16.4083 99.0047 16.035 98.958C15.671 98.902 15.349 98.8553 15.069 98.818L15.181 97.894C15.4516 97.922 15.7643 97.9547 16.119 97.992C16.483 98.0293 16.8376 98.062 17.183 98.09C17.5376 98.118 17.8363 98.132 18.079 98.132C18.7603 98.132 19.269 97.978 19.605 97.67C19.941 97.362 20.109 96.8813 20.109 96.228C20.109 95.8733 20.039 95.5933 19.899 95.388C19.7683 95.1733 19.5443 95.0053 19.227 94.884C18.919 94.7533 18.5036 94.6367 17.981 94.534C17.309 94.394 16.749 94.2307 16.301 94.044C15.8623 93.848 15.531 93.5727 15.307 93.218C15.0923 92.8633 14.985 92.3827 14.985 91.776C14.985 91.1507 15.111 90.6467 15.363 90.264C15.6243 89.8813 15.9883 89.6013 16.455 89.424C16.931 89.2467 17.4816 89.158 18.107 89.158C18.387 89.158 18.7043 89.1767 19.059 89.214C19.423 89.242 19.7776 89.2793 20.123 89.326C20.4776 89.3633 20.781 89.4053 21.033 89.452L20.935 90.39C20.6643 90.3527 20.3516 90.32 19.997 90.292C19.6423 90.2547 19.3016 90.222 18.975 90.194C18.6483 90.166 18.387 90.152 18.191 90.152C17.5096 90.152 16.9916 90.278 16.637 90.53C16.2916 90.782 16.119 91.174 16.119 91.706C16.119 92.1167 16.1936 92.4293 16.343 92.644C16.5016 92.8587 16.7536 93.0267 17.099 93.148C17.4443 93.2693 17.897 93.3953 18.457 93.526C18.9423 93.638 19.3576 93.7593 19.703 93.89C20.0576 94.0207 20.347 94.184 20.571 94.38C20.8043 94.5667 20.9723 94.8047 21.075 95.094C21.187 95.374 21.243 95.724 21.243 96.144C21.243 96.8533 21.117 97.4273 20.865 97.866C20.613 98.3047 20.2536 98.6267 19.787 98.832C19.3203 99.028 18.7696 99.126 18.135 99.126ZM24.9269 99L22.4069 89.326H23.5689L25.7669 98.006H26.5369L28.7349 89.326H29.8969L27.3909 99H24.9269ZM34.953 99.14C34.2063 99.14 33.5903 99.0327 33.105 98.818C32.6196 98.594 32.237 98.272 31.957 97.852C31.677 97.4227 31.4763 96.9 31.355 96.284C31.243 95.668 31.187 94.968 31.187 94.184C31.187 93.372 31.243 92.658 31.355 92.042C31.4763 91.4167 31.677 90.894 31.957 90.474C32.2463 90.0447 32.629 89.7227 33.105 89.508C33.5903 89.284 34.197 89.172 34.925 89.172C35.289 89.172 35.667 89.1907 36.059 89.228C36.4603 89.2653 36.8383 89.3167 37.193 89.382C37.557 89.438 37.8603 89.494 38.103 89.55L38.061 90.474C37.8183 90.4273 37.5196 90.3853 37.165 90.348C36.8103 90.3013 36.4463 90.264 36.073 90.236C35.709 90.1987 35.373 90.18 35.065 90.18C34.5143 90.18 34.0616 90.2593 33.707 90.418C33.3523 90.5767 33.077 90.824 32.881 91.16C32.685 91.4867 32.545 91.902 32.461 92.406C32.3863 92.9007 32.349 93.4933 32.349 94.184C32.349 95.08 32.419 95.822 32.559 96.41C32.699 96.998 32.9603 97.4367 33.343 97.726C33.735 98.006 34.2996 98.146 35.037 98.146C35.2516 98.146 35.4803 98.1367 35.723 98.118C35.9656 98.0993 36.199 98.076 36.423 98.048C36.6563 98.02 36.8476 97.992 36.997 97.964V95.038H35.429V94.044H38.103V98.804C37.9443 98.832 37.7343 98.8647 37.473 98.902C37.2116 98.9393 36.9316 98.9767 36.633 99.014C36.3343 99.0513 36.0356 99.0793 35.737 99.098C35.4476 99.126 35.1863 99.14 34.953 99.14ZM39.6759 100.722L40.3059 97.474H41.5239L40.5719 100.722H39.6759ZM46.9366 99V89.326H50.4786C51.188 89.326 51.7713 89.4427 52.2286 89.676C52.686 89.9 53.0266 90.2453 53.2506 90.712C53.4746 91.1693 53.5866 91.7527 53.5866 92.462C53.5866 93.162 53.4746 93.7593 53.2506 94.254C53.0266 94.7393 52.686 95.1127 52.2286 95.374C51.7713 95.626 51.188 95.752 50.4786 95.752H48.0566V99H46.9366ZM48.0566 94.772H50.4786C51.1693 94.772 51.6686 94.5713 51.9766 94.17C52.2846 93.7687 52.4386 93.1993 52.4386 92.462C52.4386 91.7153 52.2846 91.1693 51.9766 90.824C51.6686 90.4787 51.1693 90.306 50.4786 90.306H48.0566V94.772ZM55.3918 99V89.326H57.4778L61.1178 98.006H61.3978V89.326H62.5178V99H60.4738L56.7778 90.32H56.5118V99H55.3918ZM68.4104 99.14C67.6637 99.14 67.0477 99.0327 66.5624 98.818C66.0771 98.594 65.6944 98.272 65.4144 97.852C65.1344 97.4227 64.9337 96.9 64.8124 96.284C64.7004 95.668 64.6444 94.968 64.6444 94.184C64.6444 93.372 64.7004 92.658 64.8124 92.042C64.9337 91.4167 65.1344 90.894 65.4144 90.474C65.7037 90.0447 66.0864 89.7227 66.5624 89.508C67.0477 89.284 67.6544 89.172 68.3824 89.172C68.7464 89.172 69.1244 89.1907 69.5164 89.228C69.9177 89.2653 70.2957 89.3167 70.6504 89.382C71.0144 89.438 71.3177 89.494 71.5604 89.55L71.5184 90.474C71.2757 90.4273 70.9771 90.3853 70.6224 90.348C70.2677 90.3013 69.9037 90.264 69.5304 90.236C69.1664 90.1987 68.8304 90.18 68.5224 90.18C67.9717 90.18 67.5191 90.2593 67.1644 90.418C66.8097 90.5767 66.5344 90.824 66.3384 91.16C66.1424 91.4867 66.0024 91.902 65.9184 92.406C65.8437 92.9007 65.8064 93.4933 65.8064 94.184C65.8064 95.08 65.8764 95.822 66.0164 96.41C66.1564 96.998 66.4177 97.4367 66.8004 97.726C67.1924 98.006 67.7571 98.146 68.4944 98.146C68.7091 98.146 68.9377 98.1367 69.1804 98.118C69.4231 98.0993 69.6564 98.076 69.8804 98.048C70.1137 98.02 70.3051 97.992 70.4544 97.964V95.038H68.8864V94.044H71.5604V98.804C71.4017 98.832 71.1917 98.8647 70.9304 98.902C70.6691 98.9393 70.3891 98.9767 70.0904 99.014C69.7917 99.0513 69.4931 99.0793 69.1944 99.098C68.9051 99.126 68.6437 99.14 68.4104 99.14ZM73.1333 100.722L73.7633 97.474H74.9813L74.0293 100.722H73.1333ZM79.47 100.008V99.014C79.778 99.014 80.0347 99 80.24 98.972C80.4454 98.944 80.604 98.8833 80.716 98.79C80.828 98.6873 80.9074 98.5333 80.954 98.328C81.0007 98.1227 81.024 97.8473 81.024 97.502V89.326H82.144V97.656C82.144 98.1787 82.0927 98.5987 81.99 98.916C81.8874 99.224 81.724 99.4573 81.5 99.616C81.2854 99.7747 81.01 99.8773 80.674 99.924C80.338 99.98 79.9367 100.008 79.47 100.008ZM84.6109 99V89.326H88.1529C88.8623 89.326 89.4456 89.4427 89.9029 89.676C90.3603 89.9 90.7009 90.2453 90.9249 90.712C91.1489 91.1693 91.2609 91.7527 91.2609 92.462C91.2609 93.162 91.1489 93.7593 90.9249 94.254C90.7009 94.7393 90.3603 95.1127 89.9029 95.374C89.4456 95.626 88.8623 95.752 88.1529 95.752H85.7309V99H84.6109ZM85.7309 94.772H88.1529C88.8436 94.772 89.3429 94.5713 89.6509 94.17C89.9589 93.7687 90.1129 93.1993 90.1129 92.462C90.1129 91.7153 89.9589 91.1693 89.6509 90.824C89.3429 90.4787 88.8436 90.306 88.1529 90.306H85.7309V94.772ZM96.4401 99.14C95.6934 99.14 95.0774 99.0327 94.5921 98.818C94.1067 98.594 93.7241 98.272 93.4441 97.852C93.1641 97.4227 92.9634 96.9 92.8421 96.284C92.7301 95.668 92.6741 94.968 92.6741 94.184C92.6741 93.372 92.7301 92.658 92.8421 92.042C92.9634 91.4167 93.1641 90.894 93.4441 90.474C93.7334 90.0447 94.1161 89.7227 94.5921 89.508C95.0774 89.284 95.6841 89.172 96.4121 89.172C96.7761 89.172 97.1541 89.1907 97.5461 89.228C97.9474 89.2653 98.3254 89.3167 98.6801 89.382C99.0441 89.438 99.3474 89.494 99.5901 89.55L99.5481 90.474C99.3054 90.4273 99.0067 90.3853 98.6521 90.348C98.2974 90.3013 97.9334 90.264 97.5601 90.236C97.1961 90.1987 96.8601 90.18 96.5521 90.18C96.0014 90.18 95.5487 90.2593 95.1941 90.418C94.8394 90.5767 94.5641 90.824 94.3681 91.16C94.1721 91.4867 94.0321 91.902 93.9481 92.406C93.8734 92.9007 93.8361 93.4933 93.8361 94.184C93.8361 95.08 93.9061 95.822 94.0461 96.41C94.1861 96.998 94.4474 97.4367 94.8301 97.726C95.2221 98.006 95.7867 98.146 96.5241 98.146C96.7387 98.146 96.9674 98.1367 97.2101 98.118C97.4527 98.0993 97.6861 98.076 97.9101 98.048C98.1434 98.02 98.3347 97.992 98.4841 97.964V95.038H96.9161V94.044H99.5901V98.804C99.4314 98.832 99.2214 98.8647 98.9601 98.902C98.6987 98.9393 98.4187 98.9767 98.1201 99.014C97.8214 99.0513 97.5227 99.0793 97.2241 99.098C96.9347 99.126 96.6734 99.14 96.4401 99.14Z" fill="black" fill-opacity="0.54"/>
<path d="M1.144 71.536C1.00533 71.536 0.861333 71.5253 0.712 71.504C0.552 71.4933 0.397333 71.4827 0.248 71.472L0.392 70.336C0.541333 70.3467 0.68 70.3573 0.808 70.368C0.936 70.3893 1.048 70.4 1.144 70.4C1.64533 70.4 2.05067 70.208 2.36 69.824C2.66933 69.4507 2.824 68.928 2.824 68.256V60H4.072V68.256C4.072 68.9067 3.944 69.4773 3.688 69.968C3.44267 70.4693 3.10133 70.8533 2.664 71.12C2.22667 71.3973 1.72 71.536 1.144 71.536ZM12.8731 68V66.864H14.6011V68H12.8731ZM9.08113 71.536C8.70779 71.536 8.30779 71.504 7.88113 71.44C7.46513 71.3867 7.00646 71.3067 6.50513 71.2L6.69713 70.192C7.26246 70.2667 7.73179 70.32 8.10513 70.352C8.48913 70.384 8.81446 70.4 9.08113 70.4C9.96646 70.4 10.6118 70.2293 11.0171 69.888C11.4225 69.5573 11.6251 69.072 11.6251 68.432V60.72L12.2651 61.136H9.56113C8.94246 61.136 8.46246 61.2107 8.12113 61.36C7.79046 61.5093 7.56113 61.792 7.43313 62.208C7.30513 62.6133 7.24113 63.2107 7.24113 64C7.24113 64.7893 7.30513 65.392 7.43313 65.808C7.56113 66.2133 7.79046 66.4907 8.12113 66.64C8.46246 66.7893 8.94246 66.864 9.56113 66.864H11.6251V68H9.56113C8.63313 68 7.90779 67.8613 7.38513 67.584C6.87313 67.296 6.51046 66.8587 6.29713 66.272C6.09446 65.6747 5.99313 64.9173 5.99313 64C5.99313 63.0827 6.09446 62.3307 6.29713 61.744C6.51046 61.1467 6.87313 60.7093 7.38513 60.432C7.90779 60.144 8.63313 60 9.56113 60H12.8731V68.416C12.8731 69.0773 12.7185 69.6427 12.4091 70.112C12.1105 70.5813 11.6785 70.9333 11.1131 71.168C10.5478 71.4133 9.87046 71.536 9.08113 71.536ZM14.6011 68V66.864C14.7398 66.864 14.8251 66.9173 14.8571 67.024C14.8998 67.12 14.9211 67.2533 14.9211 67.424C14.9211 67.5947 14.8998 67.7333 14.8571 67.84C14.8251 67.9467 14.7398 68 14.6011 68ZM26.6731 68V66.864H28.4011V68H26.6731ZM14.7531 68V66.864H26.5771L25.4251 67.904V64.144C25.4251 63.472 25.3291 62.9173 25.1371 62.48C24.9558 62.032 24.6785 61.696 24.3051 61.472C23.9425 61.248 23.4838 61.136 22.9291 61.136C22.4598 61.136 22.0225 61.216 21.6171 61.376C21.2225 61.5253 20.8545 61.728 20.5131 61.984C20.1718 62.2293 19.8518 62.5067 19.5531 62.816C19.2651 63.1147 18.9985 63.4187 18.7531 63.728C18.5078 64.0373 18.2838 64.32 18.0811 64.576L17.6811 63.44C17.9478 63.1093 18.2145 62.7787 18.4811 62.448C18.7585 62.1173 19.0465 61.808 19.3451 61.52C19.6438 61.2213 19.9691 60.96 20.3211 60.736C20.6838 60.512 21.0785 60.336 21.5051 60.208C21.9318 60.0693 22.4118 60 22.9451 60C23.7025 60 24.3211 60.128 24.8011 60.384C25.2918 60.64 25.6705 60.9813 25.9371 61.408C26.2145 61.824 26.4065 62.272 26.5131 62.752C26.6198 63.232 26.6731 63.696 26.6731 64.144V68H14.7531ZM17.0251 66.864V60H18.2731V66.864H17.0251ZM14.7531 68C14.6145 68 14.5291 67.9467 14.4971 67.84C14.4545 67.7333 14.4331 67.5947 14.4331 67.424C14.4331 67.2533 14.4545 67.12 14.4971 67.024C14.5291 66.9173 14.6145 66.864 14.7531 66.864V68ZM28.4011 68V66.864C28.5398 66.864 28.6251 66.9173 28.6571 67.024C28.6998 67.12 28.7211 67.2533 28.7211 67.424C28.7211 67.5947 28.6998 67.7333 28.6571 67.84C28.6251 67.9467 28.5398 68 28.4011 68ZM30.4798 68V56.528H31.7278V68H30.4798ZM28.5438 68V66.864H30.4798V68H28.5438ZM28.5438 68C28.4051 68 28.3198 67.9467 28.2878 67.84C28.2451 67.7333 28.2238 67.5947 28.2238 67.424C28.2238 67.2533 28.2451 67.12 28.2878 67.024C28.3198 66.9173 28.4051 66.864 28.5438 66.864V68ZM34.636 68V56.528H35.868V68H34.636ZM48.0285 71.728L48.2205 72.752C47.7192 72.8587 47.2552 72.9387 46.8285 72.992C46.4125 73.056 46.0178 73.088 45.6445 73.088C44.8658 73.088 44.1885 72.9653 43.6125 72.72C43.0472 72.4853 42.6098 72.1333 42.3005 71.664C42.0018 71.1947 41.8525 70.6293 41.8525 69.968C41.8525 69.456 41.9432 68.9813 42.1245 68.544C42.3058 68.1067 42.5672 67.728 42.9085 67.408C43.2498 67.0773 43.6605 66.816 44.1405 66.624L44.6365 66.416C45.0525 66.2453 45.4738 66.0533 45.9005 65.84C46.3272 65.6267 46.7378 65.392 47.1325 65.136C47.5272 64.8693 47.8792 64.5813 48.1885 64.272C48.4978 63.952 48.7432 63.6107 48.9245 63.248C49.1058 62.8747 49.1965 62.4747 49.1965 62.048V61.088L49.8685 62.096C49.2605 61.776 48.6525 61.536 48.0445 61.376C47.4472 61.216 46.8658 61.136 46.3005 61.136C45.7352 61.136 45.1538 61.216 44.5565 61.376C43.9592 61.536 43.3565 61.776 42.7485 62.096L43.4205 61.088V62.048C43.4205 62.432 43.5218 62.8427 43.7245 63.28C43.9272 63.7173 44.2045 64.1493 44.5565 64.576C44.9192 64.992 45.3458 65.376 45.8365 65.728C46.3272 66.0693 46.8658 66.3467 47.4525 66.56C48.0392 66.7627 48.6525 66.864 49.2925 66.864H51.3085V68H49.2925C48.4605 68 47.6818 67.8667 46.9565 67.6C46.2312 67.3333 45.5752 66.9813 44.9885 66.544C44.4018 66.096 43.8952 65.6107 43.4685 65.088C43.0525 64.5547 42.7325 64.0267 42.5085 63.504C42.2845 62.9707 42.1725 62.4853 42.1725 62.048V61.088C42.6312 60.8427 43.0952 60.64 43.5645 60.48C44.0338 60.32 44.4978 60.2027 44.9565 60.128C45.4258 60.0427 45.8738 60 46.3005 60C46.7378 60 47.1858 60.0427 47.6445 60.128C48.1032 60.2027 48.5672 60.32 49.0365 60.48C49.5058 60.64 49.9698 60.8427 50.4285 61.088V62.048C50.4285 62.6773 50.3005 63.248 50.0445 63.76C49.7885 64.2613 49.4525 64.7093 49.0365 65.104C48.6312 65.4987 48.1885 65.8453 47.7085 66.144C47.2285 66.4427 46.7645 66.6987 46.3165 66.912C46.2098 66.9547 46.0658 67.0187 45.8845 67.104C45.7138 67.1787 45.5325 67.2587 45.3405 67.344C45.1592 67.4293 44.9938 67.504 44.8445 67.568C44.7058 67.6213 44.6205 67.6587 44.5885 67.68C44.2045 67.8613 43.8578 68.1227 43.5485 68.464C43.2498 68.816 43.1005 69.312 43.1005 69.952C43.1005 70.6027 43.3032 71.0987 43.7085 71.44C44.1245 71.7813 44.7698 71.952 45.6445 71.952C45.9005 71.952 46.2205 71.9307 46.6045 71.888C46.9992 71.856 47.4738 71.8027 48.0285 71.728ZM51.3085 68V66.864C51.4472 66.864 51.5325 66.9173 51.5645 67.024C51.6072 67.12 51.6285 67.2533 51.6285 67.424C51.6285 67.5947 51.6072 67.7333 51.5645 67.84C51.5325 67.9467 51.4472 68 51.3085 68ZM51.4562 68V66.864H59.5362L58.7042 67.584V60.592L59.3602 61.136H56.6402C56.0216 61.136 55.5416 61.2107 55.2002 61.36C54.8696 61.5093 54.6402 61.792 54.5122 62.208C54.3842 62.6133 54.3202 63.2107 54.3202 64C54.3202 64.7893 54.3842 65.392 54.5122 65.808C54.6402 66.2133 54.8696 66.4907 55.2002 66.64C55.5416 66.7893 56.0216 66.864 56.6402 66.864V67.68C55.7122 67.68 54.9869 67.568 54.4642 67.344C53.9522 67.1093 53.5896 66.7253 53.3762 66.192C53.1736 65.648 53.0722 64.9173 53.0722 64C53.0722 63.0827 53.1736 62.3307 53.3762 61.744C53.5896 61.1467 53.9522 60.7093 54.4642 60.432C54.9869 60.144 55.7122 60 56.6402 60H59.9522V68H51.4562ZM51.4562 68C51.3176 68 51.2322 67.9467 51.2002 67.84C51.1576 67.7333 51.1362 67.5947 51.1362 67.424C51.1362 67.2533 51.1576 67.12 51.2002 67.024C51.2322 66.9173 51.3176 66.864 51.4562 66.864V68ZM56.2562 58.56V57.12H57.5042V58.56H56.2562ZM64.077 68V66.864H66.125V68H64.077ZM61.469 71.536C61.3303 71.536 61.1863 71.5253 61.037 71.504C60.877 71.4933 60.7223 71.4827 60.573 71.472L60.717 70.336C60.8663 70.3467 61.005 70.3573 61.133 70.368C61.261 70.3893 61.373 70.4 61.469 70.4C61.9703 70.4 62.3757 70.208 62.685 69.824C62.9943 69.4507 63.149 68.928 63.149 68.256V60H64.397V68.256C64.397 68.9067 64.269 69.4773 64.013 69.968C63.7677 70.4693 63.4263 70.8533 62.989 71.12C62.5517 71.3973 62.045 71.536 61.469 71.536ZM66.125 68V66.864C66.2637 66.864 66.349 66.9173 66.381 67.024C66.4237 67.12 66.445 67.2533 66.445 67.424C66.445 67.5947 66.4237 67.7333 66.381 67.84C66.349 67.9467 66.2637 68 66.125 68ZM68.2079 68V56.528H69.4559V68H68.2079ZM66.2719 68V66.864H68.2079V68H66.2719ZM66.2719 68C66.1332 68 66.0479 67.9467 66.0159 67.84C65.9732 67.7333 65.9519 67.5947 65.9519 67.424C65.9519 67.2533 65.9732 67.12 66.0159 67.024C66.0479 66.9173 66.1332 66.864 66.2719 66.864V68ZM85.5018 68V66.864H87.2458V68H85.5018ZM74.8138 68V66.864H85.4218L84.2698 67.904V64.144C84.2698 63.472 84.1738 62.9173 83.9818 62.48C83.8004 62.032 83.5231 61.696 83.1498 61.472C82.7871 61.248 82.3284 61.136 81.7738 61.136C81.3044 61.136 80.8671 61.216 80.4618 61.376C80.0671 61.5253 79.6991 61.728 79.3578 61.984C79.0164 62.2293 78.6964 62.5067 78.3978 62.816C78.1098 63.1147 77.8431 63.4187 77.5978 63.728C77.3524 64.0373 77.1284 64.32 76.9258 64.576L76.5098 63.44C76.8404 63.024 77.1764 62.6133 77.5178 62.208C77.8591 61.8027 78.2324 61.4347 78.6378 61.104C79.0431 60.7733 79.5018 60.5067 80.0138 60.304C80.5258 60.1013 81.1124 60 81.7738 60C82.5311 60 83.1498 60.128 83.6298 60.384C84.1204 60.64 84.4991 60.9813 84.7658 61.408C85.0431 61.824 85.2351 62.272 85.3418 62.752C85.4484 63.232 85.5018 63.696 85.5018 64.144V68H74.8138ZM75.8698 66.864V56.528H77.1178V66.864H75.8698ZM87.2458 68V66.864C87.3844 66.864 87.4698 66.9173 87.5018 67.024C87.5444 67.12 87.5658 67.2533 87.5658 67.424C87.5658 67.5947 87.5444 67.7333 87.5018 67.84C87.4698 67.9467 87.3844 68 87.2458 68ZM80.2378 58.56V57.12H81.4858V58.56H80.2378ZM87.3937 68V66.864H89.5377C90.1777 66.864 90.7911 66.7627 91.3777 66.56C91.9644 66.3467 92.5031 66.0693 92.9937 65.728C93.4844 65.376 93.9111 64.992 94.2737 64.576C94.6364 64.1493 94.9191 63.7173 95.1217 63.28C95.3244 62.8427 95.4257 62.432 95.4257 62.048V61.088L96.0977 62.096C95.4791 61.776 94.8711 61.536 94.2737 61.376C93.6764 61.216 93.0951 61.136 92.5297 61.136C91.9644 61.136 91.3831 61.216 90.7857 61.376C90.1884 61.536 89.5857 61.776 88.9777 62.096L89.6497 61.088V62.048C89.6497 62.432 89.7511 62.8427 89.9537 63.28C90.1564 63.7173 90.4337 64.1493 90.7857 64.576C91.1484 64.992 91.5751 65.376 92.0657 65.728C92.5564 66.0693 93.0951 66.3467 93.6817 66.56C94.2684 66.7627 94.8817 66.864 95.5217 66.864H97.5697V68H95.5217C94.6897 68 93.9111 67.8667 93.1857 67.6C92.4604 67.3333 91.8044 66.9813 91.2177 66.544C90.6311 66.096 90.1244 65.6107 89.6977 65.088C89.2817 64.5547 88.9617 64.0267 88.7377 63.504C88.5137 62.9707 88.4017 62.4853 88.4017 62.048V61.088C88.8604 60.8427 89.3244 60.64 89.7937 60.48C90.2631 60.32 90.7271 60.2027 91.1857 60.128C91.6551 60.0427 92.1031 60 92.5297 60C92.9671 60 93.4151 60.0427 93.8737 60.128C94.3324 60.2027 94.7964 60.32 95.2657 60.48C95.7351 60.64 96.1991 60.8427 96.6577 61.088V62.048C96.6577 62.4853 96.5457 62.9707 96.3217 63.504C96.0977 64.0267 95.7724 64.5547 95.3457 65.088C94.9297 65.6107 94.4284 66.096 93.8417 66.544C93.2551 66.9813 92.5991 67.3333 91.8737 67.6C91.1484 67.8667 90.3697 68 89.5377 68H87.3937ZM87.3937 68C87.2551 68 87.1697 67.9467 87.1377 67.84C87.0951 67.7333 87.0737 67.5947 87.0737 67.424C87.0737 67.2533 87.0951 67.12 87.1377 67.024C87.1697 66.9173 87.2551 66.864 87.3937 66.864V68ZM97.5697 68V66.864C97.7084 66.864 97.7937 66.9173 97.8257 67.024C97.8684 67.12 97.8897 67.2533 97.8897 67.424C97.8897 67.5947 97.8684 67.7333 97.8257 67.84C97.7937 67.9467 97.7084 68 97.5697 68ZM91.8897 58.56V57.12H93.1377V58.56H91.8897ZM97.7156 68V66.864H109.54L108.388 67.904V64.144C108.388 63.472 108.292 62.9173 108.1 62.48C107.918 62.032 107.641 61.696 107.268 61.472C106.905 61.248 106.446 61.136 105.892 61.136C105.422 61.136 104.985 61.216 104.58 61.376C104.185 61.5253 103.817 61.728 103.476 61.984C103.134 62.2293 102.814 62.5067 102.516 62.816C102.228 63.1147 101.961 63.4187 101.716 63.728C101.47 64.0373 101.246 64.32 101.044 64.576L100.644 63.44C100.91 63.1093 101.177 62.7787 101.444 62.448C101.721 62.1173 102.009 61.808 102.308 61.52C102.606 61.2213 102.932 60.96 103.284 60.736C103.646 60.512 104.041 60.336 104.468 60.208C104.894 60.0693 105.374 60 105.908 60C106.665 60 107.284 60.128 107.764 60.384C108.254 60.64 108.633 60.9813 108.9 61.408C109.177 61.824 109.369 62.272 109.476 62.752C109.582 63.232 109.636 63.696 109.636 64.144V68H97.7156ZM99.9876 66.864V60H101.236V66.864H99.9876ZM97.7156 68C97.577 68 97.4916 67.9467 97.4596 67.84C97.417 67.7333 97.3956 67.5947 97.3956 67.424C97.3956 67.2533 97.417 67.12 97.4596 67.024C97.4916 66.9173 97.577 66.864 97.7156 66.864V68ZM104.356 58.576V57.136H105.604V58.576H104.356ZM112.527 68V56.528H113.759V68H112.527Z" fill="#1976D2"/>
<g opacity="0.4">
<line x1="1" y1="71.5" x2="116" y2="71.5" stroke="#1976D2"/>
</g>
<g clip-path="url(#clip0_135_566)">
<rect x="37" width="40" height="40" rx="20" fill="#1976D2" fill-opacity="0.12"/>
<path d="M59 10H51C49.9 10 49.01 10.9 49.01 12L49 28C49 29.1 49.89 30 50.99 30H63C64.1 30 65 29.1 65 28V16L59 10ZM63 28H51V12H58V17H63V28ZM53 23.01L54.41 24.42L56 22.84V27H58V22.84L59.59 24.43L61 23.01L57.01 19L53 23.01Z" fill="#1976D2"/>
</g>
<defs>
<clipPath id="clip0_135_566">
<rect width="40" height="40" fill="white" transform="translate(37)"/>
</clipPath>
</defs>
</svg>
